<svg xmlns="http://www.w3.org/2000/svg" xmlns:xlink="http://www.w3.org/1999/xlink" width="500" zoomAndPan="magnify" viewBox="0 0 375 374.999991" height="500" preserveAspectRatio="xMidYMid meet" version="1.0"><defs><g/><clipPath id="id1"><path d="M 0 224.128906 L 375 224.128906 L 375 374.878906 L 0 374.878906 Z M 0 224.128906 " clip-rule="nonzero"/></clipPath><clipPath id="id2"><path d="M 0 0 L 375 0 L 375 151.5 L 0 151.5 Z M 0 0 " clip-rule="nonzero"/></clipPath></defs><g clip-path="url(#id1)"><path fill="#ffcb69" d="M 187.4375 375 C 84.136719 375 0 290.863281 0 187.4375 C 0 84.011719 84.136719 0 187.4375 0 C 290.734375 0 374.875 84.136719 374.875 187.4375 C 375 290.863281 290.863281 375 187.4375 375 Z M 187.4375 3.171875 C 85.785156 3.171875 3.171875 85.785156 3.171875 187.4375 C 3.171875 289.085938 85.914062 371.828125 187.4375 371.828125 C 288.960938 371.828125 371.828125 289.085938 371.828125 187.4375 C 371.828125 85.785156 289.085938 3.171875 187.4375 3.171875 Z M 187.4375 3.171875 " fill-opacity="1" fill-rule="nonzero"/></g><g clip-path="url(#id2)"><path fill="#ffcb69" d="M 187.4375 375 C 84.136719 375 0 290.863281 0 187.4375 C 0 84.011719 84.136719 0 187.4375 0 C 290.734375 0 374.875 84.136719 374.875 187.4375 C 375 290.863281 290.863281 375 187.4375 375 Z M 187.4375 3.171875 C 85.785156 3.171875 3.171875 85.785156 3.171875 187.4375 C 3.171875 289.085938 85.914062 371.828125 187.4375 371.828125 C 288.960938 371.828125 371.828125 289.085938 371.828125 187.4375 C 371.828125 85.785156 289.085938 3.171875 187.4375 3.171875 Z M 187.4375 3.171875 " fill-opacity="1" fill-rule="nonzero"/></g><g fill="#ffcb69" fill-opacity="1"><g transform="translate(57.196129, 258.289677)"><g><path d="M 3.515625 21.828125 L 6.484375 23.234375 C 9.953125 18.640625 13.753906 16.34375 17.890625 16.34375 C 19.953125 16.34375 22.816406 16.859375 26.484375 17.890625 C 32.679688 19.953125 38.035156 20.984375 42.546875 20.984375 C 59.160156 20.984375 73.617188 13.660156 85.921875 -0.984375 C 98.222656 -15.722656 104.375 -33.003906 104.375 -52.828125 C 104.375 -55.265625 104.328125 -57.84375 104.234375 -60.5625 C 104.140625 -63.289062 104 -66.203125 103.8125 -69.296875 L 103.109375 -81.703125 C 103.015625 -82.734375 102.96875 -83.8125 102.96875 -84.9375 C 102.96875 -86.15625 102.96875 -87.421875 102.96875 -88.734375 C 102.96875 -99.253906 104.28125 -107.425781 106.90625 -113.25 C 109.539062 -119.257812 115.035156 -126.769531 123.390625 -135.78125 L 121 -139.171875 C 112.070312 -132.785156 103.382812 -129.59375 94.9375 -129.59375 C 89.675781 -129.59375 80.097656 -130.953125 66.203125 -133.671875 C 60.660156 -134.703125 55.867188 -135.476562 51.828125 -136 C 47.796875 -136.519531 44.414062 -136.78125 41.6875 -136.78125 C 33.332031 -136.78125 25.867188 -134.007812 19.296875 -128.46875 C 12.910156 -122.925781 9.71875 -116.492188 9.71875 -109.171875 C 9.71875 -104.941406 10.796875 -101.460938 12.953125 -98.734375 C 15.117188 -96.015625 17.84375 -94.65625 21.125 -94.65625 C 24.039062 -94.65625 26.457031 -95.570312 28.375 -97.40625 C 30.300781 -99.238281 31.265625 -101.5625 31.265625 -104.375 C 31.265625 -106.625 30.488281 -108.523438 28.9375 -110.078125 C 27.394531 -111.628906 25.539062 -112.40625 23.375 -112.40625 C 22.34375 -112.40625 20.9375 -111.84375 19.15625 -110.71875 C 18.40625 -110.15625 17.703125 -109.875 17.046875 -109.875 C 15.921875 -109.875 15.359375 -110.578125 15.359375 -111.984375 C 15.359375 -114.890625 16.929688 -117.304688 20.078125 -119.234375 C 23.222656 -121.160156 27.09375 -122.125 31.6875 -122.125 C 34.695312 -122.125 39.300781 -121.234375 45.5 -119.453125 C 53.757812 -117.097656 60.707031 -115.921875 66.34375 -115.921875 C 70.945312 -115.921875 77.425781 -116.910156 85.78125 -118.890625 C 75.257812 -112.316406 67.882812 -105.789062 63.65625 -99.3125 C 59.4375 -92.832031 57.1875 -84.800781 56.90625 -75.21875 C 51.925781 -78.882812 46.851562 -80.71875 41.6875 -80.71875 C 35.113281 -80.71875 28.867188 -77.757812 22.953125 -71.84375 L 24.65625 -68.875 C 29.25 -70.851562 32.628906 -71.84375 34.796875 -71.84375 C 40.148438 -71.84375 44.679688 -69.773438 48.390625 -65.640625 C 52.097656 -61.503906 54.515625 -55.867188 55.640625 -48.734375 C 49.910156 -51.929688 44.835938 -53.53125 40.421875 -53.53125 C 33.941406 -53.53125 28.117188 -51.273438 22.953125 -46.765625 L 24.65625 -44.09375 C 27.84375 -44.84375 30.46875 -45.21875 32.53125 -45.21875 C 36.757812 -45.21875 41.007812 -43.992188 45.28125 -41.546875 C 49.5625 -39.109375 53.296875 -35.773438 56.484375 -31.546875 C 61.273438 -25.066406 63.671875 -18.398438 63.671875 -11.546875 C 63.671875 -7.234375 62.210938 -3.570312 59.296875 -0.5625 C 56.296875 2.53125 52.773438 4.078125 48.734375 4.078125 C 46.765625 4.078125 43.476562 3.515625 38.875 2.390625 C 33.988281 1.171875 30.140625 0.5625 27.328125 0.5625 C 15.210938 0.5625 7.273438 7.648438 3.515625 21.828125 Z M 84.515625 -33.53125 C 84.515625 -20.09375 82.191406 -9.804688 77.546875 -2.671875 C 72.898438 4.460938 65.597656 9.109375 55.640625 11.265625 C 62.492188 7.046875 67.046875 2.398438 69.296875 -2.671875 C 71.648438 -7.648438 72.828125 -15.726562 72.828125 -26.90625 C 72.828125 -30.09375 72.828125 -33.003906 72.828125 -35.640625 C 72.828125 -38.265625 72.78125 -40.660156 72.6875 -42.828125 L 72.40625 -55.5 L 72.40625 -60.28125 C 72.40625 -78.3125 75.082031 -92.351562 80.4375 -102.40625 C 85.78125 -112.550781 94.882812 -120.671875 107.75 -126.765625 C 97.519531 -116.628906 91.039062 -107.523438 88.3125 -99.453125 C 85.59375 -91.273438 84.234375 -77.703125 84.234375 -58.734375 L 84.234375 -51.984375 L 84.515625 -40.140625 Z M 84.515625 -33.53125 "/></g></g></g><g fill="#ffcb69" fill-opacity="1"><g transform="translate(174.385985, 258.289677)"><g><path d="M 104.375 -16.765625 L 104.375 -110.578125 C 106.71875 -110.390625 108.476562 -110.222656 109.65625 -110.078125 C 110.832031 -109.941406 111.46875 -109.875 111.5625 -109.875 C 121.226562 -109.875 128.972656 -112.359375 134.796875 -117.328125 C 140.617188 -122.304688 143.859375 -129.070312 144.515625 -137.625 L 141.5625 -138.75 C 137.050781 -131.332031 130.289062 -127.625 121.28125 -127.625 C 117.144531 -127.625 108.691406 -128.609375 95.921875 -130.578125 L 82.265625 -132.828125 C 73.054688 -134.234375 65.351562 -134.9375 59.15625 -134.9375 C 46.382812 -134.9375 35.726562 -131.367188 27.1875 -124.234375 C 18.644531 -117.097656 12.820312 -106.910156 9.71875 -93.671875 L 12.671875 -92.40625 C 20.660156 -109.40625 33.007812 -117.90625 49.71875 -117.90625 C 51.320312 -117.90625 52.847656 -117.832031 54.296875 -117.6875 C 55.753906 -117.550781 57.234375 -117.382812 58.734375 -117.1875 C 33.847656 -100.851562 21.40625 -80.429688 21.40625 -55.921875 C 21.40625 -39.578125 27.367188 -25.863281 39.296875 -14.78125 C 51.222656 -3.707031 65.875 1.828125 83.25 1.828125 C 97.519531 1.828125 110.523438 -2.675781 122.265625 -11.6875 C 134.003906 -20.894531 141.421875 -32.398438 144.515625 -46.203125 L 141.5625 -47.046875 C 132.644531 -30.890625 120.25 -20.796875 104.375 -16.765625 Z M 86.625 -113.53125 C 89.914062 -112.875 92.6875 -112.332031 94.9375 -111.90625 C 97.1875 -111.488281 98.878906 -111.1875 100.015625 -111 L 100.015625 -15.921875 C 94.941406 -15.359375 91.75 -15.078125 90.4375 -15.078125 C 80.664062 -15.078125 71.226562 -18.035156 62.125 -23.953125 C 63.15625 -24.703125 63.8125 -25.265625 64.09375 -25.640625 C 74.707031 -34.273438 81.09375 -40.425781 83.25 -44.09375 C 85.5 -47.84375 86.625 -54.226562 86.625 -63.25 Z M 39.296875 -67.328125 C 39.296875 -78.222656 41.785156 -88.269531 46.765625 -97.46875 C 51.742188 -106.675781 58.316406 -113.25 66.484375 -117.1875 L 66.484375 -56.484375 C 66.484375 -45.679688 66.0625 -38.820312 65.21875 -35.90625 C 64.375 -33 61.929688 -30.09375 57.890625 -27.1875 C 45.492188 -38.175781 39.296875 -51.554688 39.296875 -67.328125 Z M 39.296875 -67.328125 "/></g></g></g></svg>